<svg height="406pt" viewBox="-22 0 406 406.65697" width="406pt" xmlns="http://www.w3.org/2000/svg"><path d="m92.089844 75.234375c0-33.820313 27.414062-61.234375 61.234375-61.234375 33.816406 0 61.234375 27.414062 61.234375 61.234375v38.386719h14v-38.386719c0-41.550781-33.683594-75.234375-75.234375-75.234375s-75.234375 33.683594-75.234375 75.234375v38.386719h14zm0 0"/><path d="m298.765625 269.578125c-1.800781-.136719-3.632813-.210937-5.441406-.210937-37.382813.035156-67.863281 29.972656-68.570313 67.347656-.707031 37.375 28.621094 68.441406 65.972656 69.890625 37.351563 1.449219 68.996094-27.257813 71.1875-64.574219 2.1875-37.316406-25.882812-69.523438-63.148437-72.453125zm29.558594 74.765625h-27.1875v28.816406c0 3.863282-3.132813 7-7 7-3.863281 0-7-3.136718-7-7v-28.816406h-28.8125c-3.867188 0-7-3.132812-7-7s3.132812-7 7-7h28.8125v-27.183594c0-3.867187 3.136719-7 7-7 3.867187 0 7 3.132813 7 7v27.183594h27.1875c3.867187 0 7 3.132812 7 7s-3.132813 7-7 7zm0 0"/><path d="m290.929688 255.429688-23.050782-130.144532c-.007812-.042968-.015625-.089844-.023437-.132812-1.015625-6.652344-6.75-11.558594-13.480469-11.53125h-25.816406v38.035156c0 3.867188-3.136719 7-7 7-3.867188 0-7-3.132812-7-7v-38.035156h-122.46875v38.035156c0 3.867188-3.132813 7-7 7-3.867188 0-7-3.132812-7-7v-38.035156h-25.816406c-6.730469-.027344-12.464844 4.878906-13.480469 11.53125-.007813.042968-.015625.089844-.023438.132812l-38.441406 217.011719c.34375 18.695313 15.585937 33.679687 34.285156 33.699219h185.046875c-12.96875-25.289063-12.066406-55.464844 2.398438-79.933594 14.460937-24.464844 40.460937-39.808594 68.871094-40.636719zm0 0"/></svg>