<svg height="511pt" viewBox="1 -77 511.999 511" width="511pt" xmlns="http://www.w3.org/2000/svg"><path d="m256.601562 266.367188 72.902344-71.832032h-39.269531c-9.113281 0-16.523437-7.414062-16.523437-16.523437v-175.148438c-13.046876 2.351563-24.796876 6.476563-35.421876 12.382813v162.765625c0 9.109375-7.410156 16.523437-16.523437 16.523437h-39.105469zm0 0"/><path d="m489.761719 180.210938c-13.402344-17.78125-32.167969-31.25-53.121094-38.203126-.617187-37.054687-12.199219-71.105468-32.769531-96.175781-24.011719-29.265625-58.617188-44.910156-100.160156-45.332031v164.035156h42.25c9.59375 0 17.53125 5.242188 21.230468 14.027344 3.519532 8.359375 2.257813 17.1875-3.457031 24.226562l-.523437.644532-90.003907 88.6875c-4.539062 4.519531-10.222656 6.90625-16.441406 6.90625-6.363281 0-12.113281-2.367188-16.644531-6.851563l-91.320313-88.710937-.566406-.699219c-5.699219-7.042969-6.945313-15.871094-3.417969-24.214844l.261719-.582031c3.980469-8.414062 11.816406-13.4375 20.960937-13.4375h42.25v-124.492188c-9.648437 11.300782-16.648437 23.53125-22.050781 34.351563-10.0625-4.859375-21.179687-7.410156-32.429687-7.410156-40.847656 0-74.167969 33.03125-74.945313 73.9375-46.609375 13.671875-78.863281 56.734375-78.863281 105.917969 0 60.835937 49.167969 110.332031 109.605469 110.332031h292.773437c60.445313 0 109.621094-49.496094 109.621094-110.332031 0-24.285157-7.691406-47.324219-22.238281-66.625zm0 0" fill="#30bac550"/></svg>