<svg xmlns="http://www.w3.org/2000/svg" viewBox="0 0 1920 1080" width="512" height="288">
	<style>
		tspan { white-space:pre }
		.shp0 { fill: currentColor } 
	</style>
	<path id="Shape 1" class="shp0" d="M960 1043C444.6 1043 28 818.38 28 540.5C28 262.62 444.6 38 960 38C1475.4 38 1892 262.62 1892 540.5C1892 818.38 1475.4 1043 960 1043Z" />
	<path id="php " fill="#ffffff" d="M868.24 543.2Q864.89 570.31 854.05 591.36Q843.2 612.41 827.1 622.62Q810.99 632.83 791.37 632.35Q766.33 631.71 751.82 613.69L736.03 695.34L691.06 695.34L732.37 456.44L773.83 456.28L770.8 473.67Q789.46 452.62 814.82 453.25Q840.17 453.89 854.21 471.75Q868.24 489.46 869.2 519.92Q869.52 529.8 868.24 543.2ZM823.59 539.85L824.54 524.54Q824.86 509.07 818.8 499.98Q812.9 490.89 801.42 490.57Q781.8 489.93 769.05 507.16L756.13 578.29Q762.03 594.39 781.49 595.03Q797.75 595.51 808.6 582.43Q819.44 569.35 823.59 539.85ZM968.87 384.04L951.01 475.58Q971.26 452.94 997.74 453.25Q1023.41 453.89 1035.38 471.75Q1047.5 489.46 1044.47 520.24L1026.29 629L981.31 629L999.65 519.76Q1000.45 513.54 999.97 508.27Q998.38 491.05 979.88 490.57Q961.7 489.93 947.98 506.2L926.29 629L881.32 629L923.74 384.04L968.87 384.04ZM1227.07 543.2Q1223.72 570.31 1212.88 591.36Q1202.03 612.41 1185.92 622.62Q1169.82 632.83 1150.2 632.35Q1125.16 631.71 1110.65 613.69L1094.86 695.34L1049.89 695.34L1091.19 456.44L1132.66 456.28L1129.63 473.67Q1148.29 452.62 1173.64 453.25Q1199 453.89 1213.04 471.75Q1227.07 489.46 1228.03 519.92Q1228.35 529.8 1227.07 543.2ZM1182.42 539.85L1183.37 524.54Q1183.69 509.07 1177.63 499.98Q1171.73 490.89 1160.25 490.57Q1140.63 489.93 1127.87 507.16L1114.96 578.29Q1120.86 594.39 1140.31 595.03Q1156.58 595.51 1167.42 582.43Q1178.27 569.35 1182.42 539.85Z" />
</svg>